<svg width="49" height="49" viewBox="0 0 49 49" fill="none" xmlns="http://www.w3.org/2000/svg">
<rect opacity="0.5" width="49" height="49" rx="2" fill="#2273B8"/>
<path d="M14.0029 17.748C13.1759 17.748 12.5029 18.421 12.5029 19.248C12.5029 20.075 13.1759 20.748 14.0029 20.748C14.8299 20.748 15.5029 20.075 15.5029 19.248C15.5029 18.421 14.8299 17.748 14.0029 17.748ZM14.0029 19.748C13.7269 19.748 13.5029 19.524 13.5029 19.248C13.5029 18.972 13.7269 18.748 14.0029 18.748C14.2789 18.748 14.5029 18.972 14.5029 19.248C14.5029 19.524 14.2789 19.748 14.0029 19.748Z" fill="white"/>
<path d="M22.7269 18.301C22.4799 18.178 22.1799 18.2775 22.0559 18.5245L21.5559 19.5245C21.4324 19.7715 21.5324 20.072 21.7794 20.1955C21.8514 20.231 21.9274 20.248 22.0024 20.248C22.1859 20.248 22.3624 20.147 22.4504 19.9715L22.9504 18.9715C23.0739 18.7245 22.9739 18.4245 22.7269 18.301Z" fill="white"/>
<path d="M24.7268 18.301C24.4803 18.178 24.1798 18.2775 24.0558 18.5245L23.5559 19.5245C23.4324 19.7715 23.5324 20.072 23.7793 20.1955C23.8513 20.231 23.9273 20.248 24.0023 20.248C24.1858 20.248 24.3623 20.147 24.4503 19.9715L24.9503 18.9715C25.0738 18.7245 24.9738 18.4245 24.7268 18.301Z" fill="white"/>
<path d="M26.7268 18.301C26.4798 18.178 26.1798 18.2775 26.0558 18.5245L25.5559 19.5245C25.4324 19.7715 25.5324 20.072 25.7793 20.1955C25.8513 20.231 25.9274 20.248 26.0024 20.248C26.1858 20.248 26.3623 20.147 26.4503 19.9715L26.9503 18.9715C27.0738 18.7245 26.9738 18.4245 26.7268 18.301Z" fill="white"/>
<path d="M14.0029 24.749C13.1759 24.749 12.5029 25.422 12.5029 26.249C12.5029 27.076 13.1759 27.749 14.0029 27.749C14.8299 27.749 15.5029 27.076 15.5029 26.249C15.5029 25.422 14.8299 24.749 14.0029 24.749ZM14.0029 26.749C13.7269 26.749 13.5029 26.525 13.5029 26.249C13.5029 25.973 13.7269 25.749 14.0029 25.749C14.2789 25.749 14.5029 25.973 14.5029 26.249C14.5029 26.525 14.2789 26.749 14.0029 26.749Z" fill="white"/>
<path d="M22.7269 25.302C22.4799 25.1795 22.1799 25.2785 22.0559 25.5255L21.5559 26.5255C21.4324 26.7725 21.5324 27.073 21.7794 27.1965C21.8514 27.232 21.9274 27.249 22.0024 27.249C22.1859 27.249 22.3624 27.148 22.4504 26.9725L22.9504 25.9725C23.0739 25.7255 22.9739 25.4255 22.7269 25.302Z" fill="white"/>
<path d="M24.7268 25.302C24.4803 25.1795 24.1798 25.2785 24.0558 25.5255L23.5559 26.5255C23.4324 26.7725 23.5324 27.073 23.7793 27.1965C23.8513 27.232 23.9273 27.249 24.0023 27.249C24.1858 27.249 24.3623 27.148 24.4503 26.9725L24.9503 25.9725C25.0738 25.7255 24.9738 25.4255 24.7268 25.302Z" fill="white"/>
<path d="M26.7268 25.302C26.4798 25.1795 26.1798 25.2785 26.0558 25.5255L25.5559 26.5255C25.4324 26.7725 25.5324 27.073 25.7793 27.1965C25.8513 27.232 25.9274 27.249 26.0024 27.249C26.1858 27.249 26.3623 27.148 26.4503 26.9725L26.9503 25.9725C27.0738 25.7255 26.9738 25.4255 26.7268 25.302Z" fill="white"/>
<path d="M14.0029 34.75C14.8299 34.75 15.5029 34.077 15.5029 33.25C15.5029 32.423 14.8299 31.75 14.0029 31.75C13.1759 31.75 12.5029 32.423 12.5029 33.25C12.5029 34.077 13.1759 34.75 14.0029 34.75ZM14.0029 32.75C14.2789 32.75 14.5029 32.974 14.5029 33.25C14.5029 33.526 14.2789 33.75 14.0029 33.75C13.7269 33.75 13.5029 33.526 13.5029 33.25C13.5029 32.974 13.7269 32.75 14.0029 32.75Z" fill="white"/>
<path d="M21.7792 34.1975C21.8512 34.233 21.9272 34.25 22.0022 34.25C22.1857 34.25 22.3622 34.149 22.4502 33.9735L22.9502 32.9735C23.0737 32.7265 22.9737 32.426 22.7267 32.3025C22.4797 32.18 22.1797 32.279 22.0557 32.526L21.5557 33.526C21.4317 33.7735 21.5317 34.0735 21.7792 34.1975Z" fill="white"/>
<path d="M23.7792 34.1975C23.8512 34.233 23.9272 34.25 24.0022 34.25C24.1857 34.25 24.3622 34.149 24.4502 33.9735L24.9502 32.9735C25.0737 32.7265 24.9737 32.426 24.7267 32.3025C24.4802 32.18 24.1797 32.279 24.0557 32.526L23.5557 33.526C23.4317 33.7735 23.5317 34.0735 23.7792 34.1975Z" fill="white"/>
<path d="M25.7792 34.1975C25.8512 34.233 25.9272 34.25 26.0022 34.25C26.1857 34.25 26.3622 34.149 26.4502 33.9735L26.9502 32.9735C27.0737 32.7265 26.9737 32.426 26.7267 32.3025C26.4797 32.18 26.1797 32.279 26.0557 32.526L25.5557 33.526C25.4317 33.7735 25.5317 34.0735 25.7792 34.1975Z" fill="white"/>
<path d="M38.199 17.5015C38.1985 17.501 38.198 17.5015 38.1975 17.501C38.167 17.4885 38.133 17.4875 38.1005 17.4805C38.0675 17.473 38.034 17.4605 38.001 17.46C38.001 17.46 38.0005 17.46 38 17.46C37.99 17.46 37.9825 17.465 37.9725 17.4655C37.9165 17.469 37.861 17.477 37.81 17.498C37.786 17.5085 37.767 17.5265 37.745 17.5395C37.7125 17.5595 37.678 17.576 37.6505 17.6035C37.624 17.6295 37.6075 17.663 37.5875 17.694C37.5725 17.717 37.5525 17.7345 37.541 17.7605C37.5405 17.7615 37.5405 17.763 37.54 17.764C37.533 17.7805 37.534 17.8 37.529 17.8175C37.5145 17.8645 37.5 17.9115 37.5 17.959V17.96V19.752H36.5V17.96C36.5 17.959 36.4995 17.958 36.4995 17.957C36.4995 17.927 36.4875 17.898 36.4815 17.868C36.4745 17.832 36.4725 17.7945 36.4585 17.7615C36.458 17.761 36.4585 17.76 36.458 17.7595C36.4515 17.7445 36.439 17.735 36.431 17.721C36.407 17.6785 36.3825 17.6365 36.348 17.6025C36.322 17.577 36.29 17.562 36.2595 17.543C36.2355 17.528 36.215 17.509 36.189 17.498C36.136 17.476 36.0785 17.4665 36.021 17.4645C36.0135 17.464 36.008 17.46 36 17.46C35.9995 17.46 35.9995 17.46 35.999 17.46C35.963 17.4605 35.9275 17.4735 35.8915 17.482C35.8615 17.489 35.8295 17.4895 35.8015 17.5015C35.801 17.502 35.8 17.5015 35.7995 17.502C34.706 17.9795 33.9995 19.059 33.9995 20.252C33.9995 21.36 34.6045 22.3265 35.5 22.846V32.756C35.5 32.757 35.4995 32.7575 35.4995 32.7585C35.4995 33.5855 36.1725 34.2585 36.9995 34.2585C37.8265 34.2585 38.4995 33.5855 38.4995 32.7585C38.4995 32.7575 38.499 32.757 38.499 32.756V22.846C39.395 22.3265 40 21.36 40 20.252C40 19.0575 39.293 17.978 38.199 17.5015ZM37.5 32.76C37.499 33.0355 37.2755 33.259 37 33.259C36.7245 33.259 36.501 33.0355 36.5 32.76C36.5 32.76 36.5005 32.7595 36.5005 32.759V23.207C36.663 23.2345 36.8295 23.252 37 23.252C37.1705 23.252 37.337 23.2345 37.4995 23.207V32.759C37.4995 32.7595 37.5 32.76 37.5 32.76ZM37 22.252C35.897 22.252 35 21.355 35 20.252C35 19.755 35.184 19.287 35.5 18.929V20.252C35.5 20.5285 35.7235 20.752 36 20.752H38C38.2765 20.752 38.5 20.5285 38.5 20.252C38.5 20.2425 38.495 20.235 38.4945 20.2255C38.495 20.2165 38.5 20.2085 38.5 20.199V18.928C38.816 19.2865 39 19.754 39 20.2515C39 21.355 38.103 22.252 37 22.252Z" fill="white"/>
<path d="M33.481 20.144C33.4755 20.12 33.478 20.0955 33.4695 20.072L32.7195 18.072C32.718 18.0685 32.715 18.0665 32.714 18.063C32.7 18.0275 32.676 17.9985 32.6545 17.968C32.639 17.945 32.627 17.9185 32.608 17.899C32.586 17.8765 32.557 17.8625 32.531 17.8445C32.505 17.8265 32.4815 17.804 32.4525 17.7915C32.426 17.7805 32.3965 17.7785 32.368 17.7715C32.333 17.763 32.299 17.751 32.262 17.75C32.258 17.75 32.255 17.748 32.2515 17.748H31.7515C31.7475 17.748 31.7445 17.75 31.741 17.75C31.7035 17.751 31.6685 17.763 31.6325 17.772C31.605 17.779 31.5765 17.7805 31.551 17.7915C31.52 17.8045 31.496 17.8275 31.469 17.8465C31.444 17.864 31.4165 17.8775 31.395 17.899C31.3755 17.9185 31.364 17.9455 31.348 17.969C31.3265 17.9995 31.303 18.028 31.289 18.063C31.288 18.0665 31.285 18.0685 31.2835 18.072L30.5335 20.072C30.5245 20.0955 30.527 20.12 30.522 20.144C30.514 20.182 30.503 20.219 30.504 20.2585C30.505 20.2905 30.515 20.32 30.522 20.351C30.529 20.383 30.5315 20.415 30.5445 20.445C30.5605 20.482 30.5865 20.5125 30.6105 20.5445C30.6245 20.563 30.6315 20.5845 30.6485 20.6015L30.658 20.611C30.658 20.611 30.6585 20.611 30.6585 20.6115L31.502 21.4555V26.2495H31.0025C30.726 26.2495 30.5025 26.473 30.5025 26.7495V32.757C30.5025 32.758 30.502 32.7585 30.502 32.7595C30.502 33.5865 31.175 34.2595 32.002 34.2595C32.829 34.2595 33.502 33.5865 33.502 32.7595C33.502 32.7585 33.5015 32.758 33.5015 32.757V26.749C33.5015 26.4725 33.278 26.249 33.0015 26.249H32.502V21.455L33.346 20.611L33.3465 20.6105L33.356 20.601C33.373 20.584 33.38 20.5625 33.394 20.544C33.418 20.512 33.444 20.4815 33.46 20.4445C33.473 20.414 33.4755 20.3825 33.4825 20.3505C33.4895 20.3195 33.4995 20.2905 33.5005 20.258C33.5 20.219 33.489 20.182 33.481 20.144ZM32.0005 33.259C31.725 33.259 31.5015 33.0355 31.501 32.76C31.501 32.76 31.501 32.7595 31.501 32.759V27.249H32.5V32.759V32.76C32.4995 33.035 32.276 33.259 32.0005 33.259ZM32.0005 20.541L31.582 20.1225L32.001 19.006L32.4195 20.122L32.0005 20.541Z" fill="white"/>
<path d="M28.854 15.397L26.354 12.897C26.308 12.8505 26.2525 12.814 26.191 12.7885C26.13 12.763 26.065 12.75 26 12.75H8.5005C8.5005 12.75 8.5005 12.75 8.5 12.75C8.435 12.75 8.37 12.763 8.309 12.7885C8.2525 12.812 8.203 12.8465 8.159 12.888C8.1555 12.8915 8.1505 12.8925 8.1465 12.8965C8.1375 12.9055 8.135 12.9165 8.127 12.926C8.0925 12.966 8.06 13.0085 8.039 13.058C8.013 13.12 8 13.186 8.0005 13.2525V34.25C8.0005 34.315 8.0135 34.38 8.039 34.441C8.0645 34.5025 8.101 34.558 8.1475 34.604L10.6465 37.103C10.6925 37.1495 10.748 37.186 10.8095 37.2115C10.8705 37.237 10.9355 37.25 11.0005 37.25H28.501C28.7775 37.25 29.001 37.0265 29.001 36.75V29.75V22.751V22.75V15.751C29.001 15.686 28.988 15.621 28.9625 15.56C28.937 15.4985 28.9005 15.443 28.854 15.397ZM25.793 13.75L27.294 15.251H11.208L9.707 13.75H25.793ZM11.5005 22.25V16.251H28.001V22.25H11.5005ZM10.5005 15.9575V21.543L9.0005 20.043V14.4575L10.5005 15.9575ZM10.5005 22.957V28.543L9.0005 27.043V21.457L10.5005 22.957ZM9.0005 28.457L10.5005 29.957V35.543L9.0005 34.043V28.457ZM11.5005 23.251H28.001V29.25H11.5005V23.251ZM28.001 36.25H11.5005V30.25H28.001V36.25Z" fill="white"/>
</svg>
