<svg width="49" height="49" viewBox="0 0 49 49" fill="none" xmlns="http://www.w3.org/2000/svg">
<rect opacity="0.5" width="49" height="49" rx="2" fill="#2273B8"/>
<path d="M36.5927 22.9087C35.7817 21.9105 34.6773 21.1808 33.4515 20.826C33.3104 17.0381 30.1848 14 26.3631 14C24.7453 14 23.1626 14.5591 21.9069 15.5744C20.8284 16.4464 20.0258 17.6226 19.6058 18.9322C19.0408 18.7063 18.4341 18.5885 17.8224 18.5885C15.1848 18.5885 13.0369 20.7248 13.0183 23.3581C11.1992 24.1832 10 26.0208 10 28.0379C10 30.8698 12.304 33.1738 15.136 33.1738H31.7027C35.1751 33.1738 38.0001 30.3488 38 26.8765C38 25.4348 37.5002 24.0256 36.5927 22.9087ZM31.7027 32.1923H15.136C12.8452 32.1923 10.9815 30.3286 10.9815 28.0379C10.9815 26.3092 12.0702 24.7436 13.6905 24.1421C13.8941 24.0665 14.0238 23.8661 14.0094 23.6495C14.0028 23.5499 13.9997 23.4683 13.9997 23.3926C13.9997 21.2848 15.7145 19.5699 17.8224 19.5699C18.4738 19.5699 19.1177 19.7377 19.6846 20.0551C19.8196 20.1307 19.9825 20.1382 20.1238 20.0752C20.2652 20.0123 20.3686 19.8864 20.4029 19.7354C20.7043 18.4065 21.4576 17.1999 22.524 16.3378C23.6057 15.4632 24.9691 14.9816 26.3631 14.9816C29.7332 14.9816 32.475 17.7233 32.475 21.0934C32.475 21.1225 32.4744 21.1514 32.4739 21.1803L32.4736 21.1997C32.4697 21.4328 32.6304 21.6366 32.8581 21.687C34.0199 21.9445 35.0757 22.5981 35.8309 23.5276C36.5968 24.4701 37.0185 25.6595 37.0185 26.8765C37.0185 29.8076 34.6338 32.1923 31.7027 32.1923Z" fill="white"/>
</svg>
