<svg width="49" height="49" viewBox="0 0 49 49" fill="none" xmlns="http://www.w3.org/2000/svg">
<rect opacity="0.5" width="49" height="49" rx="2" fill="#2273B8"/>
<path d="M36.1306 16.1829C36.2154 15.7661 35.8061 15.4185 35.408 15.5702L34.8031 15.8012C32.9747 13.5068 29.3355 14.1141 28.3417 16.8617C28.2701 17.0595 28.3724 17.2778 28.5703 17.3494C28.7679 17.421 28.9864 17.3187 29.058 17.1208C29.81 15.042 32.5094 14.4589 34.0454 16.0906L33.6353 16.2472C33.2378 16.399 33.1636 16.9311 33.5048 17.1856L34.9251 18.2453C34.9251 18.2454 34.9252 18.2454 34.9252 18.2454C35.2434 18.4826 35.6994 18.3077 35.7783 17.9196L36.1306 16.1829ZM35.101 17.4262L34.2824 16.8154L35.3042 16.4252L35.101 17.4262Z" fill="white"/>
<path d="M35.1685 18.9245C34.9707 18.8532 34.7524 18.9554 34.6809 19.1533C33.9162 21.2702 31.1511 21.8176 29.6438 20.1332L30.0479 19.9789C30.4452 19.8272 30.5197 19.2951 30.1784 19.0406C30.1783 19.0406 28.7579 17.9807 28.7579 17.9807C28.44 17.7436 27.9837 17.9184 27.9049 18.3066L27.5524 20.0431C27.4677 20.4602 27.8775 20.8078 28.275 20.6559L28.8931 20.4198C30.6953 22.7722 34.3936 22.1906 35.3972 19.412C35.4687 19.2143 35.3663 18.996 35.1685 18.9245ZM28.3789 19.801L28.5821 18.7999L29.4007 19.4107L28.3789 19.801Z" fill="white"/>
<path d="M28.8162 12.8227C22.6773 11.062 12 12.2607 12 15.4322V34.3538C12 36.5786 17.2167 37.779 22.1251 37.779C27.0335 37.779 32.2501 36.5785 32.2501 34.3538C32.2501 33.5395 32.2501 29.5568 32.2501 28.8261C32.2501 28.6157 32.0797 28.4452 31.8693 28.4452C31.6589 28.4452 31.4884 28.6157 31.4884 28.8261V29.6234C31.4884 30.8408 27.7152 32.2869 22.1251 32.2869C16.5351 32.2869 12.7617 30.8408 12.7617 29.6234V26.2636C16.0574 28.9904 28.194 28.9893 31.4884 26.2636V27.0488C31.4884 27.2591 31.6589 27.4296 31.8692 27.4296C32.0796 27.4296 32.2501 27.2591 32.2501 27.0488C32.2501 26.4949 32.2501 24.8405 32.2501 24.2563C33.1854 24.1982 34.0977 23.9269 34.9094 23.4625C35.0919 23.358 35.1553 23.1253 35.0508 22.9428C34.9464 22.7602 34.7137 22.6968 34.5311 22.8013C30.9704 24.8385 26.5516 22.2513 26.5012 18.206C26.4637 15.2118 28.8887 12.7687 31.8692 12.7687C34.8297 12.7687 37.2382 15.1772 37.2382 18.1377C37.2382 19.4844 36.7373 20.7725 35.8277 21.7646C35.6856 21.9196 35.696 22.1606 35.8511 22.3027C36.006 22.4449 36.2469 22.4344 36.3892 22.2794C37.4279 21.1464 38 19.6755 38 18.1377C38 13.437 32.8895 10.4738 28.8162 12.8227ZM31.4884 30.9946V34.3538C31.4884 35.5712 27.7151 37.0173 22.125 37.0173C16.5351 37.0173 12.7617 35.5712 12.7617 34.3538V30.9946C16.0575 33.7204 28.1933 33.7198 31.4884 30.9946ZM28.0859 22.9625C29.0622 23.731 30.2417 24.1808 31.4884 24.2568V24.893C31.4884 26.1106 27.7142 27.5565 22.125 27.5565C16.5359 27.5566 12.7617 26.1106 12.7617 24.893V21.5339C15.1683 23.5242 22.8338 24.2055 28.0859 22.9625ZM27.3998 22.3334C20.8246 23.6824 12.7617 22.0646 12.7617 20.1626V16.8034C15.0401 18.6885 21.3968 19.1825 25.7593 18.6415C25.8711 20.0252 26.4444 21.3172 27.3998 22.3334ZM25.7441 17.8748C19.2247 18.7052 12.7617 17.0986 12.7617 15.4322C12.7617 13.4304 21.5277 11.83 27.9866 13.3914C26.664 14.4686 25.8206 16.0683 25.7441 17.8748Z" fill="white"/>
</svg>
