<svg width="49" height="49" viewBox="0 0 49 49" fill="none" xmlns="http://www.w3.org/2000/svg">
<rect opacity="0.5" width="49" height="49" rx="2" fill="#2273B8"/>
<path d="M35.7447 21.7614H35.033V21.0329C35.033 15.5008 30.5322 11 25 11C19.4678 11 14.9671 15.5008 14.9671 21.0329V21.7614H14.2554C13.0117 21.7614 12 22.7732 12 24.0167V28.3869C12 29.6304 13.0117 30.6422 14.2554 30.6422H15.0063C15.1865 31.5225 15.9671 32.1867 16.8999 32.1867H17.7451C18.8108 32.1867 19.6779 31.3197 19.6779 30.254V28.0666C19.6779 27.8533 19.5049 27.6804 19.2917 27.6804C19.0785 27.6804 18.9056 27.8533 18.9056 28.0666V30.254C18.9056 30.8938 18.385 31.4144 17.7451 31.4144H16.8998C16.26 31.4144 15.7394 30.8939 15.7394 30.254V22.1497C15.7394 21.5098 16.26 20.9893 16.8998 20.9893H17.7451C18.3849 20.9893 18.9055 21.5098 18.9055 22.1497V26.7793C18.9055 26.9926 19.0784 27.1655 19.2917 27.1655C19.5049 27.1655 19.6778 26.9926 19.6778 26.7793V22.1497C19.6778 21.084 18.8108 20.217 17.7451 20.217H16.8998C16.4694 20.217 16.0715 20.3585 15.7499 20.5973C15.8402 18.6577 16.5301 16.8723 17.6379 15.4223C17.8549 15.8874 18.302 16.1743 18.8195 16.1743H18.8248C19.5373 16.1743 20.2259 15.9451 20.8164 15.5117C22.0357 14.6164 23.4824 14.1432 25 14.1432C25.9023 14.1432 26.7811 14.3105 27.6117 14.6405C27.8098 14.7192 28.0344 14.6224 28.1132 14.4242C28.1841 14.2456 28.1125 14.0457 27.9526 13.9503C27.9351 13.9398 27.9164 13.9306 27.8968 13.9228C26.975 13.5566 26.0004 13.3709 25 13.3709C23.3168 13.3709 21.7121 13.8959 20.3593 14.8892C19.9024 15.2247 19.3717 15.402 18.8248 15.402H18.8195C18.4891 15.402 18.3583 15.149 18.3261 15.0716C18.297 15.0014 18.223 14.7704 18.3891 14.555C20.071 12.8389 22.4131 11.7723 25.0001 11.7723C27.5871 11.7723 29.9293 12.839 31.6111 14.5552C31.7769 14.7707 31.703 15.0016 31.6739 15.0717C31.6417 15.1492 31.5109 15.402 31.1757 15.402C30.6288 15.402 30.0982 15.2247 29.6413 14.8892C29.4398 14.7412 29.2289 14.6014 29.0144 14.4736C28.9963 14.4628 28.9776 14.4536 28.9586 14.4461C28.7855 14.3775 28.5834 14.4425 28.485 14.6076C28.3759 14.7907 28.4358 15.0278 28.619 15.1369C28.8123 15.2522 29.0025 15.3783 29.1842 15.5117C29.7746 15.9451 30.4633 16.1743 31.1806 16.1743C31.6981 16.1743 32.1452 15.8874 32.3622 15.4223C33.47 16.8724 34.1599 18.6577 34.2501 20.5974C33.9285 20.3586 33.5306 20.217 33.1002 20.217H32.2549C31.1892 20.217 30.3222 21.084 30.3222 22.1497V30.254C30.3222 31.3197 31.1892 32.1868 32.2549 32.1868H33.1002C33.5353 32.1868 33.9372 32.0421 34.2607 31.7985V31.8594C34.2607 34.2116 32.347 36.1253 29.9948 36.1253H28.1741C28.3199 35.8845 28.404 35.6023 28.404 35.3008C28.404 34.4203 27.6877 33.7039 26.8072 33.7039H25.5991C24.7186 33.7039 24.0022 34.4203 24.0022 35.3008C24.0022 36.1813 24.7186 36.8976 25.5991 36.8976H29.9948C32.7728 36.8976 35.0329 34.6375 35.0329 31.8595V30.6423H35.7446C36.9882 30.6423 38 29.6305 38 28.3869V24.0167C38.0001 22.7732 36.9884 21.7614 35.7447 21.7614ZM14.9671 23.6943V29.8699H14.2554C13.4376 29.8699 12.7723 29.2046 12.7723 28.3869V24.0167C12.7723 23.199 13.4376 22.5336 14.2554 22.5336H14.9671V23.6943ZM34.2608 30.2539C34.2608 30.8938 33.7401 31.4144 33.1003 31.4144H32.255C31.6152 31.4144 31.0946 30.8938 31.0946 30.2539V22.1496C31.0946 21.5098 31.6151 20.9892 32.255 20.9892H33.1003C33.7401 20.9892 34.2608 21.5098 34.2608 22.1496V30.2539ZM26.8073 36.1253H25.5992C25.1446 36.1252 24.7746 35.7553 24.7746 35.3007C24.7746 34.8461 25.1446 34.4762 25.5992 34.4762H26.8073C27.262 34.4762 27.6319 34.8461 27.6319 35.3007C27.6319 35.7554 27.2619 36.1253 26.8073 36.1253ZM37.2278 28.3869C37.2278 29.2046 36.5625 29.8699 35.7447 29.8699H35.033V23.6943V22.5337H35.7447C36.5625 22.5337 37.2278 23.199 37.2278 24.0168V28.3869Z" fill="white"/>
<path d="M28.1132 14.4242C28.0344 14.6224 27.8098 14.7192 27.6117 14.6405L28.619 15.1369C28.4358 15.0278 28.3759 14.7907 28.485 14.6076C28.5834 14.4425 28.7855 14.3775 28.9586 14.4461L27.9526 13.9503C28.1125 14.0457 28.1841 14.2456 28.1132 14.4242Z" fill="white"/>
<path d="M19.2917 27.6804C19.5049 27.6804 19.6779 27.8533 19.6779 28.0666L19.6778 26.7793C19.6778 26.9926 19.5049 27.1655 19.2917 27.1655C19.0784 27.1655 18.9055 26.9926 18.9055 26.7793L18.9056 28.0666C18.9056 27.8533 19.0785 27.6804 19.2917 27.6804Z" fill="white"/>
</svg>
