<svg width="49" height="49" viewBox="0 0 49 49" fill="none" xmlns="http://www.w3.org/2000/svg">
<rect opacity="0.5" width="49" height="49" rx="2" fill="#2273B8"/>
<path d="M34.1636 11C32.5994 11 31.3273 12.2721 31.3273 13.8364C31.3273 14.3256 31.4516 14.7861 31.6705 15.1884L27.024 19.8348C26.3835 19.3361 25.5817 19.0364 24.7091 19.0364C23.8364 19.0364 23.0347 19.3361 22.3937 19.8343L18.7683 16.209C18.9347 15.9277 19.0364 15.6044 19.0364 15.2545C19.0364 14.2117 18.1883 13.3636 17.1455 13.3636C16.1026 13.3636 15.2545 14.2117 15.2545 15.2545C15.2545 16.2974 16.1026 17.1455 17.1455 17.1455C17.4953 17.1455 17.8186 17.0438 18.0999 16.8774L21.7252 20.5028C21.227 21.1438 20.9273 21.9455 20.9273 22.8182C20.9273 23.6908 21.227 24.4926 21.7252 25.1331L15.7386 31.1202C15.2347 30.6631 14.5686 30.3818 13.8364 30.3818C12.2721 30.3818 11 31.6539 11 33.2182C11 34.7824 12.2721 36.0545 13.8364 36.0545C15.4006 36.0545 16.6727 34.7824 16.6727 33.2182C16.6727 32.7289 16.5484 32.2685 16.3295 31.8662L22.3941 25.8016C22.917 26.2081 23.5476 26.4804 24.2368 26.5669V31.3698C22.8976 31.5958 21.8732 32.7606 21.8732 34.1636C21.8732 35.7279 23.1453 37 24.7096 37C26.2738 37 27.5459 35.7279 27.5459 34.1636C27.5459 32.7611 26.5215 31.5963 25.1823 31.3698V26.5669C25.8715 26.4804 26.5021 26.2081 27.025 25.8016L30.6503 29.4269C30.4835 29.7087 30.3818 30.032 30.3818 30.3818C30.3818 31.4247 31.2299 32.2727 32.2727 32.2727C33.3156 32.2727 34.1636 31.4247 34.1636 30.3818C34.1636 29.339 33.3156 28.4909 32.2727 28.4909C31.9229 28.4909 31.5996 28.5925 31.3183 28.7589L27.6929 25.1336C28.1912 24.4926 28.4909 23.6908 28.4909 22.8182C28.4909 21.9455 28.1912 21.1438 27.6929 20.5032L32.2619 15.9343C32.7653 16.3915 33.4314 16.6727 34.1636 16.6727C35.7279 16.6727 37 15.4006 37 13.8364C37 12.2721 35.7279 11 34.1636 11ZM16.2 15.2545C16.2 14.7331 16.624 14.3091 17.1455 14.3091C17.6669 14.3091 18.0909 14.7331 18.0909 15.2545C18.0909 15.776 17.6669 16.2 17.1455 16.2C16.624 16.2 16.2 15.776 16.2 15.2545ZM13.8364 35.1091C12.7935 35.1091 11.9455 34.261 11.9455 33.2182C11.9455 32.1753 12.7935 31.3273 13.8364 31.3273C14.8792 31.3273 15.7273 32.1753 15.7273 33.2182C15.7273 34.261 14.8792 35.1091 13.8364 35.1091ZM26.6 34.1636C26.6 35.2065 25.7519 36.0545 24.7091 36.0545C23.6663 36.0545 22.8182 35.2065 22.8182 34.1636C22.8182 33.1208 23.6663 32.2727 24.7091 32.2727C25.7519 32.2727 26.6 33.1208 26.6 34.1636ZM24.7091 25.6545C23.1448 25.6545 21.8727 24.3824 21.8727 22.8182C21.8727 21.2539 23.1448 19.9818 24.7091 19.9818C26.2733 19.9818 27.5455 21.2539 27.5455 22.8182C27.5455 24.3824 26.2733 25.6545 24.7091 25.6545ZM33.2182 30.3818C33.2182 30.9032 32.7941 31.3273 32.2727 31.3273C31.7513 31.3273 31.3273 30.9032 31.3273 30.3818C31.3273 29.8604 31.7513 29.4364 32.2727 29.4364C32.7941 29.4364 33.2182 29.8604 33.2182 30.3818ZM34.1636 15.7273C33.1208 15.7273 32.2727 14.8792 32.2727 13.8364C32.2727 12.7935 33.1208 11.9455 34.1636 11.9455C35.2065 11.9455 36.0545 12.7935 36.0545 13.8364C36.0545 14.8792 35.2065 15.7273 34.1636 15.7273Z" fill="white"/>
</svg>
