<svg width="49" height="49" viewBox="0 0 49 49" fill="none" xmlns="http://www.w3.org/2000/svg">
<rect opacity="0.5" width="49" height="49" rx="2" fill="#2273B8"/>
<path d="M14.0332 33.6667H13.5999C13.3605 33.6667 13.1665 33.8607 13.1665 34.1C13.1665 34.3394 13.3605 34.5334 13.5999 34.5334H14.0332C14.2726 34.5334 14.4666 34.3394 14.4666 34.1C14.4666 33.8607 14.2726 33.6667 14.0332 33.6667Z" fill="white"/>
<path d="M18.8001 33.6667H15.7667C15.5275 33.6667 15.3335 33.8607 15.3335 34.1C15.3335 34.3394 15.5275 34.5334 15.7667 34.5334H18.8001C19.0393 34.5334 19.2335 34.3394 19.2335 34.1C19.2335 33.8607 19.0393 33.6667 18.8001 33.6667Z" fill="white"/>
<path d="M20.9668 33.6667H20.5333C20.2941 33.6667 20.1001 33.8607 20.1001 34.1C20.1001 34.3394 20.2941 34.5334 20.5333 34.5334H20.9668C21.206 34.5334 21.4 34.3394 21.4 34.1C21.4 33.8607 21.206 33.6667 20.9668 33.6667Z" fill="white"/>
<path d="M25.7334 33.6667H22.7C22.4606 33.6667 22.2666 33.8607 22.2666 34.1C22.2666 34.3394 22.4606 34.5334 22.7 34.5334H25.7334C25.9727 34.5334 26.1667 34.3394 26.1667 34.1C26.1667 33.8607 25.9727 33.6667 25.7334 33.6667Z" fill="white"/>
<path d="M14.0332 35.4001H13.5999C13.3605 35.4001 13.1665 35.5941 13.1665 35.8336C13.1665 36.0728 13.3605 36.2668 13.5999 36.2668H14.0332C14.2726 36.2668 14.4666 36.0728 14.4666 35.8336C14.4666 35.5941 14.2726 35.4001 14.0332 35.4001Z" fill="white"/>
<path d="M18.8001 35.4001H15.7667C15.5275 35.4001 15.3335 35.5941 15.3335 35.8336C15.3335 36.0728 15.5275 36.2668 15.7667 36.2668H18.8001C19.0393 36.2668 19.2335 36.0728 19.2335 35.8336C19.2335 35.5941 19.0393 35.4001 18.8001 35.4001Z" fill="white"/>
<path d="M20.9668 35.4001H20.5333C20.2941 35.4001 20.1001 35.5941 20.1001 35.8336C20.1001 36.0728 20.2941 36.2668 20.5333 36.2668H20.9668C21.206 36.2668 21.4 36.0728 21.4 35.8336C21.4 35.5941 21.206 35.4001 20.9668 35.4001Z" fill="white"/>
<path d="M25.7334 35.4001H22.7C22.4606 35.4001 22.2666 35.5941 22.2666 35.8336C22.2666 36.0728 22.4606 36.2668 22.7 36.2668H25.7334C25.9727 36.2668 26.1667 36.0728 26.1667 35.8336C26.1667 35.5941 25.9727 35.4001 25.7334 35.4001Z" fill="white"/>
<path d="M19.0278 28.7792C19.0278 28.7764 19.0238 28.7756 19.0222 28.7734C18.9943 28.7405 18.9637 28.7095 18.9312 28.6812C18.9199 28.6709 18.908 28.6611 18.8957 28.652C18.7451 28.5326 18.5587 28.4673 18.3664 28.4666H14.0332C13.5545 28.4666 13.1665 28.8548 13.1665 29.3334V31.9334C13.1669 32.1716 13.2659 32.3991 13.44 32.5616C13.45 32.5709 13.4605 32.5796 13.4716 32.5876C13.6271 32.7237 13.8265 32.799 14.0332 32.8H18.3664C18.8451 32.8 19.2333 32.412 19.2333 31.9334V29.3334C19.2323 29.1309 19.1597 28.9355 19.0286 28.7812L19.0278 28.7792ZM17.3933 29.3334L14.0332 31.538V29.3334H17.3933ZM15.0099 31.9334L18.3664 29.7311V31.9334H15.0099Z" fill="white"/>
<path d="M25.9614 28.7792C25.9614 28.7764 25.9574 28.7756 25.9556 28.7734C25.9277 28.7405 25.8973 28.7095 25.8646 28.6812C25.8533 28.6709 25.8414 28.6611 25.8291 28.652C25.6785 28.5326 25.4923 28.4673 25.3 28.4666H20.9668C20.4881 28.4666 20.1001 28.8548 20.1001 29.3334V31.9334C20.1003 32.1716 20.1993 32.3991 20.3734 32.5616C20.3836 32.5709 20.3941 32.5796 20.4052 32.5876C20.5607 32.7237 20.7601 32.799 20.9668 32.8H25.3C25.7787 32.8 26.1667 32.412 26.1667 31.9334V29.3334C26.1657 29.1309 26.0933 28.9355 25.9622 28.7812L25.9614 28.7792ZM24.3269 29.3334L20.9668 31.538V29.3334H24.3269ZM21.9435 31.9334L25.3 29.7311V31.9334H21.9435Z" fill="white"/>
<path d="M35.2668 12H24.8667C23.9096 12 23.1334 12.776 23.1334 13.7333V19.8001H13.1668C11.959 19.8136 10.9898 20.802 11.0001 22.0101V35.79C10.9898 36.9981 11.959 37.9865 13.1668 38H26.1668C27.3747 37.9865 28.3439 36.9981 28.3335 35.79V25.8667H35.2668C36.2241 25.8667 37.0001 25.0907 37.0001 24.1333V13.7333C37.0001 12.776 36.2241 12 35.2668 12V12ZM23.1334 22.6006L14.0335 26.5207V22.4H23.1334V22.6006ZM23.1334 23.5436V24.1333C23.1334 25.0907 23.9096 25.8667 24.8667 25.8667H25.3002V26.7333H15.7291L23.1334 23.5436ZM27.4669 35.79C27.4776 36.5196 26.8962 37.1203 26.1668 37.1333H13.1668C12.4374 37.1203 11.856 36.5196 11.8667 35.79V22.0101C11.856 21.2805 12.4374 20.6798 13.1668 20.6667H23.1334V21.5334H14.0335C13.5548 21.5334 13.1668 21.9214 13.1668 22.4V26.7333C13.1668 27.212 13.5548 27.6 14.0335 27.6H25.3002C25.7788 27.6 26.1668 27.212 26.1668 26.7333V25.8667H27.4669V35.79ZM36.1334 24.1333C36.1334 24.612 35.7454 25 35.2668 25H24.8667C24.3883 25 24.0001 24.612 24.0001 24.1333V13.7333C24.0001 13.2547 24.3883 12.8667 24.8667 12.8667H35.2668C35.7454 12.8667 36.1334 13.2547 36.1334 13.7333V24.1333Z" fill="white"/>
<path d="M34.8335 15.0333H29.1387C28.9441 14.2688 28.2558 13.7336 27.4669 13.7336C26.678 13.7336 25.9896 14.2688 25.795 15.0333H25.3001C25.0609 15.0333 24.8667 15.2273 24.8667 15.4666C24.8667 15.706 25.0609 15.9 25.3001 15.9H25.795C25.9896 16.6645 26.678 17.1997 27.4669 17.1997C28.2558 17.1997 28.9441 16.6645 29.1387 15.9H34.8335C35.0728 15.9 35.2668 15.706 35.2668 15.4666C35.2668 15.2273 35.0728 15.0333 34.8335 15.0333ZM27.4669 16.3334C26.9882 16.3334 26.6002 15.9452 26.6002 15.4666C26.6002 14.9881 26.9882 14.5999 27.4669 14.5999C27.9455 14.5999 28.3335 14.9881 28.3335 15.4666C28.3335 15.6965 28.2421 15.917 28.0796 16.0795C27.9172 16.242 27.6966 16.3334 27.4669 16.3334Z" fill="white"/>
<path d="M34.8335 18.4999H31.7387C31.5441 17.7354 30.8557 17.2004 30.0668 17.2004C29.2779 17.2004 28.5896 17.7354 28.395 18.4999H25.3001C25.0609 18.4999 24.8667 18.6939 24.8667 18.9334C24.8667 19.1726 25.0609 19.3666 25.3001 19.3666H28.395C28.5896 20.1311 29.2779 20.6663 30.0668 20.6663C30.8557 20.6663 31.5441 20.1311 31.7387 19.3666H34.8335C35.0728 19.3666 35.2668 19.1726 35.2668 18.9334C35.2668 18.6939 35.0728 18.4999 34.8335 18.4999ZM30.0668 19.8C29.5882 19.8 29.2002 19.412 29.2002 18.9334C29.2002 18.4547 29.5882 18.0667 30.0668 18.0667C30.5455 18.0667 30.9335 18.4547 30.9335 18.9334C30.9335 19.412 30.5455 19.8 30.0668 19.8Z" fill="white"/>
<path d="M34.8335 21.9667H34.3386C34.144 21.2024 33.4557 20.6672 32.6668 20.6672C31.8779 20.6672 31.1896 21.2024 30.995 21.9667H25.3001C25.0609 21.9667 24.8667 22.1609 24.8667 22.4002C24.8667 22.6394 25.0609 22.8336 25.3001 22.8336H30.995C31.1896 23.5981 31.8779 24.1331 32.6668 24.1331C33.4557 24.1331 34.144 23.5981 34.3386 22.8336H34.8335C35.0728 22.8336 35.2668 22.6394 35.2668 22.4002C35.2668 22.1609 35.0728 21.9667 34.8335 21.9667ZM32.6668 23.2668C32.1881 23.2668 31.8001 22.8788 31.8001 22.4002C31.8001 21.9215 32.1881 21.5335 32.6668 21.5335C33.1455 21.5335 33.5335 21.9215 33.5335 22.4002C33.5335 22.8788 33.1455 23.2668 32.6668 23.2668Z" fill="white"/>
</svg>
