<svg width="49" height="49" viewBox="0 0 49 49" fill="none" xmlns="http://www.w3.org/2000/svg">
<rect opacity="0.5" width="49" height="49" rx="2" fill="#2273B8"/>
<path d="M35.7 25H30.4445C30.2209 23.6268 29.3309 23.3702 29.2927 23.3603L26.1576 22.5027V20.9956C26.5225 20.677 26.7914 20.2629 26.9341 19.8H27.4576C28.1755 19.8 28.7576 19.218 28.7576 18.5V15.9C28.7576 13.859 26.4852 12 23.9909 12C21.4966 12 19.2242 13.859 19.2242 15.9V20.6667C19.2242 21.1453 19.6123 21.5333 20.0909 21.5333H20.5242C20.7636 21.5333 20.9576 21.3393 20.9576 21.1C20.9576 20.8607 20.7636 20.6667 20.5242 20.6667H20.0909V19.8H21.0442C21.1891 20.263 21.4591 20.677 21.8242 20.9964V22.5023L18.6882 23.3594C18.6449 23.3702 17.7643 23.6272 17.5455 25H12.3C11.582 25 11 25.582 11 26.3V26.7333C11.0023 27.2823 11.3491 27.7706 11.8667 27.9536V37.1333C11.8667 37.612 12.2547 38 12.7333 38H14.4667C14.9453 38 15.3333 37.612 15.3333 37.1333V36.7H32.6667V37.1333C32.6667 37.612 33.0547 38 33.5333 38H35.2667C35.7453 38 36.1333 37.612 36.1333 37.1333V27.9536C36.6509 27.7706 36.9977 27.2823 37 26.7333V26.3C37 25.582 36.418 25 35.7 25ZM22.6909 22.0408C23.142 22.4867 23.561 22.4 24.3939 22.4C24.73 22.411 25.0553 22.2807 25.2909 22.0408V22.7553C24.9477 23.4465 23.0376 23.4387 22.6909 22.7553V22.0408ZM27.8909 18.5C27.8909 18.7393 27.6969 18.9333 27.4576 18.9333H27.0242V17.2H27.8909V18.5ZM23.9909 12.8667C26.187 12.8667 27.8909 14.4973 27.8909 15.9V16.3333H26.99C26.7765 14.8412 25.4984 13.733 23.9911 13.733C22.4838 13.733 21.2058 14.8412 20.9922 16.3333H20.0909V15.9C20.0909 14.4973 21.7943 12.8667 23.9909 12.8667ZM20.9576 18.9333H20.0909V17.2H20.9576V18.9333ZM21.8242 16.7667C21.8242 15.57 22.7943 14.6 23.9909 14.6C25.1875 14.6 26.1576 15.57 26.1576 16.7667V19.3389C26.0913 19.7247 25.8938 20.0756 25.5986 20.3326C24.8632 20.9778 24.8281 21.5333 24.3939 21.5333H23.5875C23.1541 21.5333 23.1177 20.9774 22.3806 20.3304C22.0927 20.0804 21.8968 19.7411 21.8242 19.3667V16.7667ZM18.9144 24.1962L22.0431 23.3412C22.2987 23.6879 22.8495 24.1333 23.9931 24.1333C25.1366 24.1333 25.6831 23.6896 25.9387 23.3416L29.0514 24.1927C29.0687 24.1988 29.4171 24.3292 29.5644 25H18.423C18.566 24.3288 18.9079 24.1988 18.9144 24.1962ZM15.3333 35.8333C14.8547 35.8333 14.4667 36.2214 14.4667 36.7V37.1333H12.7333V28.0333H21.27C19.9954 28.9228 19.2359 30.3791 19.2359 31.9333C19.2359 33.4876 19.9954 34.9438 21.27 35.8333H15.3333ZM24 28.0333C26.1539 28.0333 27.9 29.7794 27.9 31.9333C27.9 34.0872 26.1539 35.8333 24 35.8333C21.8461 35.8333 20.1 34.0872 20.1 31.9333C20.1026 29.7805 21.8472 28.036 24 28.0333ZM35.2667 37.1333H33.5333V36.7C33.5333 36.2214 33.1453 35.8333 32.6667 35.8333H26.7322C28.0067 34.9438 28.7662 33.4876 28.7662 31.9333C28.7662 30.3791 28.0067 28.9228 26.7322 28.0333H35.2667V37.1333ZM36.1333 26.7333C36.1333 26.9727 35.9393 27.1667 35.7 27.1667H12.3C12.0607 27.1667 11.8667 26.9727 11.8667 26.7333V26.3C11.8667 26.0607 12.0607 25.8667 12.3 25.8667H35.7C35.9393 25.8667 36.1333 26.0607 36.1333 26.3V26.7333Z" fill="white"/>
<path d="M22.6999 31.0667C22.9393 31.0667 23.1333 30.8727 23.1333 30.6334C23.1333 30.1547 23.5213 29.7667 23.9999 29.7667C24.4786 29.7667 24.8666 30.1547 24.8666 30.6334C24.8666 31.112 24.4786 31.5 23.9999 31.5C23.7606 31.5 23.5666 31.694 23.5666 31.9334V32.8C23.5666 33.0394 23.7606 33.2334 23.9999 33.2334C24.2393 33.2334 24.4333 33.0394 24.4333 32.8V32.3121C25.3054 32.0869 25.8597 31.2313 25.7088 30.3433C25.5578 29.4554 24.7519 28.831 23.8544 28.9066C22.9569 28.9822 22.2668 29.7327 22.2666 30.6334C22.2666 30.8727 22.4606 31.0667 22.6999 31.0667Z" fill="white"/>
<path d="M23.9997 34.9665C24.2391 34.9665 24.4331 34.7725 24.4331 34.5332C24.4331 34.2939 24.2391 34.0999 23.9997 34.0999C23.7604 34.0999 23.5664 34.2939 23.5664 34.5332C23.5664 34.7725 23.7604 34.9665 23.9997 34.9665Z" fill="white"/>
</svg>
