<svg width="49" height="49" viewBox="0 0 49 49" fill="none" xmlns="http://www.w3.org/2000/svg">
<rect opacity="0.5" width="49" height="49" rx="2" fill="#2273B8"/>
<path d="M35.2 13H12.8C12.3583 13.0004 12.0004 13.3583 12 13.8V16.6C12.0004 17.0417 12.3583 17.3995 12.8 17.4H13.3107L12.0527 19.6015C11.9821 19.7253 11.9824 19.8774 12.054 20.0009C12.1256 20.1241 12.2574 20.2001 12.4001 20.2001H13.3107L12.0527 22.4016C11.9821 22.5253 11.9824 22.6775 12.054 22.8007C12.1256 22.9241 12.2574 22.9999 12.4001 22.9999H13.3107L12.0527 25.2016C11.9821 25.3254 11.9824 25.4774 12.054 25.6008C12.1256 25.724 12.2574 25.8 12.4001 25.8H13.3107L12.0527 28.0016C11.9821 28.1254 11.9824 28.2774 12.054 28.4008C12.1256 28.524 12.2574 28.6 12.4001 28.6H13.3107L12.0527 30.8015C11.9821 30.9253 11.9824 31.0775 12.054 31.2007C12.1256 31.3241 12.2574 31.3999 12.4001 31.4001H13.3107L12.0527 33.6016C11.9821 33.7253 11.9824 33.8775 12.054 34.0007C12.1256 34.1241 12.2574 34.2 12.4001 34.2H13.3107L12.0527 36.4016C11.9821 36.5254 11.9824 36.6774 12.054 36.8008C12.1256 36.924 12.2574 37 12.4001 37H35.5999C35.7426 37 35.8744 36.924 35.946 36.8008C36.0176 36.6774 36.0179 36.5254 35.9473 36.4016L34.6893 34.2H35.5999C35.7426 34.2 35.8744 34.1241 35.946 34.0007C36.0176 33.8775 36.0179 33.7253 35.9473 33.6016L34.6893 31.4001H35.5999C35.7426 31.3999 35.8744 31.3241 35.946 31.2007C36.0176 31.0775 36.0179 30.9253 35.9473 30.8015L34.6893 28.6H35.5999C35.7426 28.6 35.8744 28.524 35.946 28.4008C36.0176 28.2774 36.0179 28.1254 35.9473 28.0016L34.6893 25.8H35.5999C35.7426 25.8 35.8744 25.724 35.946 25.6008C36.0176 25.4774 36.0179 25.3254 35.9473 25.2016L34.6893 22.9999H35.5999C35.7426 22.9999 35.8744 22.9241 35.946 22.8007C36.0176 22.6775 36.0179 22.5253 35.9473 22.4016L34.6893 20.2001H35.5999C35.7426 20.2001 35.8744 20.1241 35.946 20.0009C36.0176 19.8774 36.0179 19.7253 35.9473 19.6015L34.6893 17.4H35.2C35.6417 17.3995 35.9995 17.0417 36 16.6V13.8C35.9995 13.3583 35.6417 13.0005 35.2 13V13ZM14.2321 17.4H16.4V19.4001H13.0893L14.2321 17.4ZM29.2 17.4V19.4001H18.8V17.4H29.2ZM32.4 17.4V19.4001H31.6V17.4H32.4ZM18.8 33.4V31.4001H29.2V33.4H18.8ZM29.2 34.2V36.2H18.8V34.2H29.2ZM29.2 22.2H18.8V20.2001H29.2V22.2ZM30 20.2001H30.8V22.2H30V20.2001ZM18.8 27.8V25.8H29.2V27.8H18.8ZM29.2 28.6V30.5999H18.8V28.6H29.2ZM18.8 25V22.9999H29.2V25H18.8ZM18 22.2H17.2V20.2001H18V22.2ZM18 22.9999V25H17.2V22.9999H18ZM18 25.8V27.8H17.2V25.8H18ZM18 28.6V30.5999H17.2V28.6H18ZM18 31.4001V33.4H17.2V31.4001H18ZM30 31.4001H30.8V33.4H30V31.4001ZM30 30.5999V28.6H30.8V30.5999H30ZM30 27.8V25.8H30.8V27.8H30ZM30 25V22.9999H30.8V25H30ZM31.6 22.9999H32.4V25H31.6V22.9999ZM31.6 22.2V20.2001H32.4V22.2H31.6ZM30.8 19.4001H30V17.4H30.8V19.4001ZM18 19.4001H17.2V17.4H18V19.4001ZM14.2321 20.2001H16.4V22.2H13.0893L14.2321 20.2001ZM14.2321 22.9999H16.4V25H13.0893L14.2321 22.9999ZM14.2321 25.8H16.4V27.8H13.0893L14.2321 25.8ZM14.2321 28.6H16.4V30.5999H13.0893L14.2321 28.6ZM14.2321 31.4001H16.4V33.4H13.0893L14.2321 31.4001ZM14.2321 34.2H16.4V36.2H13.0893L14.2321 34.2ZM17.2 36.2V34.2H18V36.2H17.2ZM30 36.2V34.2H30.8V36.2H30ZM34.9105 36.2H31.6V34.2H33.7679L34.9105 36.2ZM34.9105 33.4H31.6V31.4001H33.7679L34.9105 33.4ZM34.9105 30.5999H31.6V28.6H33.7679L34.9105 30.5999ZM34.9105 27.8H31.6V25.8H32.4V26.6C32.4 26.821 32.579 27.0001 32.8 27.0001C33.0209 27.0001 33.2 26.821 33.2 26.6V25.8H33.7679L34.9105 27.8ZM34.9105 25H33.2V22.9999H33.7679L34.9105 25ZM34.9105 22.2H33.2V20.2001H33.7679L34.9105 22.2ZM34.9105 19.4001H33.2V17.4H33.7679L34.9105 19.4001ZM33.9999 16.6H12.8V13.8H35.2L35.2004 16.6H33.9999Z" fill="white"/>
<path d="M14.8007 15.0002H14.0007C13.7797 15.0002 13.6006 15.1793 13.6006 15.4001C13.6006 15.6212 13.7797 15.8002 14.0007 15.8002H14.8007C15.0215 15.8002 15.2006 15.6212 15.2006 15.4001C15.2006 15.1793 15.0215 15.0002 14.8007 15.0002Z" fill="white"/>
<path d="M18.7991 15.0002H16.3991C16.1781 15.0002 15.999 15.1793 15.999 15.4001C15.999 15.6212 16.1781 15.8002 16.3991 15.8002H18.7991C19.0201 15.8002 19.1992 15.6212 19.1992 15.4001C19.1992 15.1793 19.0201 15.0002 18.7991 15.0002Z" fill="white"/>
</svg>
