<svg width="49" height="49" viewBox="0 0 49 49" fill="none" xmlns="http://www.w3.org/2000/svg">
<rect opacity="0.5" width="49" height="49" rx="2" fill="#2273B8"/>
<path d="M39.9468 20.8695C39.9114 20.7276 39.805 20.5858 39.6632 20.5503L18.7789 11.1188C17.9989 10.7642 17.1834 10.5869 16.3324 10.5869C13.9922 10.5869 11.8648 11.9697 10.9429 14.0972C9.66648 16.9337 10.8011 20.2312 13.4604 21.685C13.354 22.2168 13.3895 22.7487 13.5668 23.2451C13.815 23.9188 14.3468 24.4506 14.985 24.7697L19.8427 26.9681C19.8427 27.0035 19.8072 27.0035 19.8072 27.039L18.1407 30.4783C17.9634 30.4429 17.7507 30.4074 17.5734 30.4074C16.3679 30.4074 15.3396 31.2584 15.0914 32.393H9.13463V27.0744C9.13463 26.7553 8.88643 26.5071 8.56731 26.5071C8.2482 26.5071 8 26.7553 8 27.0744V38.8462C8 39.1653 8.2482 39.4135 8.56731 39.4135C8.88643 39.4135 9.13463 39.1653 9.13463 38.8462V33.5276H15.056C15.3042 34.6623 16.3324 35.5132 17.5379 35.5132C18.9562 35.5132 20.0909 34.3786 20.0909 32.9603C20.0909 32.1448 19.7008 31.4357 19.1335 30.9747L20.8355 27.4999C20.8355 27.4645 20.8709 27.429 20.8709 27.3936L25.8349 29.6274C26.1895 29.8046 26.5795 29.8756 26.9341 29.8756C27.785 29.8756 28.6006 29.4855 29.1324 28.7764L32.7136 30.4074L34.8055 31.3648C34.8765 31.4002 34.9474 31.4002 35.0537 31.4002C35.2665 31.4002 35.4792 31.2584 35.5856 31.0811L39.9468 21.2949C40.0177 21.1531 40.0177 21.0113 39.9468 20.8695ZM17.5379 34.4141C16.7579 34.4141 16.1197 33.7758 16.1197 32.9958C16.1197 32.2157 16.7579 31.5775 17.5379 31.5775C18.318 31.5775 18.9562 32.2157 18.9562 32.9958C18.9562 33.7758 18.318 34.4141 17.5379 34.4141ZM13.744 20.5503C11.7939 19.2739 11.0139 16.7564 11.9712 14.5581C12.7512 12.8562 14.4532 11.7215 16.3324 11.7215C16.7579 11.7215 17.1834 11.7925 17.5734 11.8988L13.744 20.5503ZM26.2958 28.5991L15.446 23.7415C15.056 23.5642 14.7723 23.2451 14.6305 22.8551C14.5596 22.6423 14.5241 22.4296 14.5241 22.2168L27.9978 28.28C27.5723 28.7409 26.8986 28.8828 26.2958 28.5991ZM32.6427 29.131L29.097 27.5354L14.7368 21.0467L18.6726 12.3243L36.5784 20.4085L32.6427 29.131ZM34.7701 30.0528L33.7064 29.5919L37.6421 20.8695L38.7058 21.3304L34.7701 30.0528Z" fill="white"/>
</svg>
