<svg width="49" height="49" viewBox="0 0 49 49" fill="none" xmlns="http://www.w3.org/2000/svg">
<rect opacity="0.5" width="49" height="49" rx="2" fill="#2273B8"/>
<path d="M20.5482 24.5813C20.437 24.5813 20.3304 24.6255 20.2517 24.7041C20.1731 24.7828 20.1289 24.8894 20.1289 25.0006V25.8393C20.1289 25.9505 20.1731 26.0572 20.2517 26.1358C20.3304 26.2145 20.437 26.2587 20.5482 26.2587C20.6595 26.2587 20.7661 26.2145 20.8448 26.1358C20.9234 26.0572 20.9676 25.9505 20.9676 25.8393V25.0006C20.9676 24.8894 20.9234 24.7828 20.8448 24.7041C20.7661 24.6255 20.6595 24.5813 20.5482 24.5813Z" fill="white"/>
<path d="M28.0959 21.6458H23.0639C22.9527 21.6458 22.846 21.6899 22.7674 21.7686C22.6887 21.8472 22.6445 21.9539 22.6445 22.0651V25.4198C22.6445 25.531 22.6887 25.6377 22.7674 25.7163C22.846 25.795 22.9527 25.8391 23.0639 25.8391H28.0959C28.2072 25.8391 28.3138 25.795 28.3925 25.7163C28.4711 25.6377 28.5153 25.531 28.5153 25.4198V22.0651C28.5153 21.9539 28.4711 21.8472 28.3925 21.7686C28.3138 21.6899 28.2072 21.6458 28.0959 21.6458ZM23.4832 22.4844H25.1606V25.0005H23.4832V22.4844ZM27.6766 25.0005H25.9992V22.4844H27.6766V25.0005Z" fill="white"/>
<path d="M36.0639 24.5811H30.6125V21.2264H32.7092C32.7986 21.2265 32.8856 21.198 32.9576 21.1452C33.0296 21.0923 33.0829 21.0178 33.1096 20.9326C33.1364 20.8474 33.1352 20.7558 33.1062 20.6713C33.0773 20.5868 33.0221 20.5137 32.9488 20.4627L23.304 13.7533C23.2337 13.7044 23.1501 13.6782 23.0644 13.6782C22.9788 13.6782 22.8952 13.7044 22.8249 13.7533L20.9043 15.0894C20.7899 14.4688 20.5217 13.8869 20.1242 13.3967C19.7268 12.9066 19.2127 12.524 18.6292 12.2839C18.0456 12.0438 17.4111 11.9538 16.7838 12.0223C16.1565 12.0907 15.5564 12.3154 15.0384 12.6758C14.5204 13.0361 14.101 13.5206 13.8186 14.085C13.5362 14.6493 13.3999 15.2754 13.422 15.906C13.4442 16.5367 13.6241 17.1517 13.9454 17.6948C14.2667 18.238 14.719 18.6918 15.261 19.0149L13.1801 20.4627C13.1067 20.5137 13.0515 20.5868 13.0226 20.6713C12.9937 20.7558 12.9925 20.8474 13.0192 20.9326C13.046 21.0178 13.0992 21.0923 13.1712 21.1452C13.2433 21.198 13.3303 21.2265 13.4196 21.2264H15.5163V29.6132C15.5163 29.7244 15.5605 29.8311 15.6391 29.9097C15.7178 29.9884 15.8244 30.0326 15.9357 30.0326H28.9352V36.742C28.9356 37.0755 29.0683 37.3952 29.3041 37.631C29.54 37.8669 29.8597 37.9996 30.1932 38H36.0639C36.3974 37.9996 36.7172 37.8669 36.953 37.631C37.1888 37.3952 37.3215 37.0755 37.322 36.742V25.8392C37.3215 25.5057 37.1888 25.1859 36.953 24.9501C36.7172 24.7143 36.3974 24.5816 36.0639 24.5811ZM34.2241 25.4198L34.0841 25.8392H32.173L32.033 25.4198H34.2241ZM14.2583 15.775C14.2583 15.1945 14.4305 14.6269 14.753 14.1442C15.0755 13.6615 15.534 13.2853 16.0704 13.0631C16.6067 12.8409 17.1969 12.7828 17.7663 12.8961C18.3357 13.0093 18.8588 13.2889 19.2693 13.6994C19.6798 14.1099 19.9594 14.633 20.0726 15.2024C20.1859 15.7718 20.1278 16.362 19.9056 16.8983C19.6834 17.4347 19.3072 17.8932 18.8245 18.2157C18.3418 18.5382 17.7742 18.7104 17.1937 18.7104C16.4154 18.7095 15.6693 18.4 15.119 17.8497C14.5687 17.2994 14.2592 16.5533 14.2583 15.775ZM14.7568 20.3878L16.1673 19.406C16.704 19.5582 17.2678 19.5895 17.818 19.4975C18.3682 19.4055 18.8912 19.1925 19.3491 18.8739C19.8071 18.5554 20.1886 18.1392 20.4662 17.6553C20.7439 17.1715 20.9107 16.632 20.9546 16.0759L23.0644 14.6087L31.3721 20.3878H14.7568ZM21.3871 29.1939H18.0324V22.4845H21.3871V29.1939ZM28.9352 25.8392V29.1939H22.2257V22.0651C22.2257 21.9539 22.1816 21.8472 22.1029 21.7686C22.0243 21.69 21.9176 21.6458 21.8064 21.6458H17.613C17.5018 21.6458 17.3951 21.69 17.3165 21.7686C17.2379 21.8472 17.1937 21.9539 17.1937 22.0651V29.1939H16.355V21.2264H29.7739V24.6535C29.5288 24.7404 29.3166 24.901 29.1664 25.1133C29.0163 25.3256 28.9355 25.5791 28.9352 25.8392ZM36.4833 36.742C36.4831 36.8532 36.4389 36.9597 36.3603 37.0383C36.2817 37.1169 36.1751 37.1612 36.0639 37.1613H30.1932C30.082 37.1612 29.9755 37.1169 29.8968 37.0383C29.8182 36.9597 29.774 36.8532 29.7739 36.742V25.8392C29.774 25.728 29.8182 25.6214 29.8968 25.5428C29.9755 25.4642 30.082 25.42 30.1932 25.4198H31.1488L31.4727 26.3911C31.5005 26.4746 31.5539 26.5472 31.6253 26.5987C31.6967 26.6502 31.7825 26.6779 31.8705 26.6778H34.3866C34.4746 26.6779 34.5604 26.6502 34.6318 26.5987C34.7032 26.5472 34.7566 26.4746 34.7844 26.3911L35.1084 25.4198H36.0639C36.1751 25.42 36.2817 25.4642 36.3603 25.5428C36.4389 25.6214 36.4831 25.728 36.4833 25.8392V36.742Z" fill="white"/>
<path d="M32.2901 35.9033H30.6127C30.5015 35.9033 30.3948 35.9475 30.3162 36.0261C30.2375 36.1048 30.1934 36.2114 30.1934 36.3227C30.1934 36.4339 30.2375 36.5405 30.3162 36.6192C30.3948 36.6978 30.5015 36.742 30.6127 36.742H32.2901C32.4013 36.742 32.5079 36.6978 32.5866 36.6192C32.6652 36.5405 32.7094 36.4339 32.7094 36.3227C32.7094 36.2114 32.6652 36.1048 32.5866 36.0261C32.5079 35.9475 32.4013 35.9033 32.2901 35.9033Z" fill="white"/>
<path d="M33.9676 35.9033H33.5482C33.437 35.9033 33.3304 35.9475 33.2517 36.0261C33.1731 36.1048 33.1289 36.2114 33.1289 36.3227C33.1289 36.4339 33.1731 36.5405 33.2517 36.6192C33.3304 36.6978 33.437 36.742 33.5482 36.742H33.9676C34.0788 36.742 34.1855 36.6978 34.2641 36.6192C34.3427 36.5405 34.3869 36.4339 34.3869 36.3227C34.3869 36.2114 34.3427 36.1048 34.2641 36.0261C34.1855 35.9475 34.0788 35.9033 33.9676 35.9033Z" fill="white"/>
<path d="M27.6764 34.6453H20.5477V30.8712C20.5477 30.76 20.5035 30.6534 20.4248 30.5747C20.3462 30.4961 20.2395 30.4519 20.1283 30.4519C20.0171 30.4519 19.9104 30.4961 19.8318 30.5747C19.7532 30.6534 19.709 30.76 19.709 30.8712V35.0646C19.709 35.1758 19.7532 35.2825 19.8318 35.3612C19.9104 35.4398 20.0171 35.484 20.1283 35.484H27.6764C27.7876 35.484 27.8943 35.4398 27.9729 35.3612C28.0516 35.2825 28.0958 35.1758 28.0958 35.0646C28.0958 34.9534 28.0516 34.8468 27.9729 34.7681C27.8943 34.6895 27.7876 34.6453 27.6764 34.6453Z" fill="white"/>
<path d="M28.935 16.6138H35.2251V23.7426C35.2251 23.8538 35.2692 23.9605 35.3479 24.0391C35.4265 24.1177 35.5332 24.1619 35.6444 24.1619C35.7556 24.1619 35.8623 24.1177 35.9409 24.0391C36.0195 23.9605 36.0637 23.8538 36.0637 23.7426V16.1945C36.0637 16.0833 36.0195 15.9766 35.9409 15.898C35.8623 15.8193 35.7556 15.7751 35.6444 15.7751H28.935C28.8237 15.7751 28.7171 15.8193 28.6384 15.898C28.5598 15.9766 28.5156 16.0833 28.5156 16.1945C28.5156 16.3057 28.5598 16.4124 28.6384 16.491C28.7171 16.5696 28.8237 16.6138 28.935 16.6138Z" fill="white"/>
<path d="M33.1283 32.5486C33.3599 32.5486 33.5477 32.3609 33.5477 32.1293C33.5477 31.8977 33.3599 31.71 33.1283 31.71C32.8967 31.71 32.709 31.8977 32.709 32.1293C32.709 32.3609 32.8967 32.5486 33.1283 32.5486Z" fill="white"/>
<path d="M32.5702 31.5041C32.7239 31.3666 32.9229 31.2906 33.1291 31.2906C33.3354 31.2906 33.5344 31.3666 33.6881 31.5041C33.7291 31.5408 33.777 31.5691 33.829 31.5873C33.8809 31.6056 33.936 31.6134 33.991 31.6103C34.046 31.6073 34.0998 31.5934 34.1494 31.5696C34.1991 31.5457 34.2435 31.5123 34.2803 31.4713C34.317 31.4303 34.3453 31.3824 34.3635 31.3304C34.3818 31.2785 34.3896 31.2234 34.3865 31.1684C34.3835 31.1135 34.3696 31.0596 34.3458 31.01C34.3219 30.9603 34.2885 30.9159 34.2475 30.8792C33.94 30.604 33.5418 30.4519 33.1291 30.4519C32.7165 30.4519 32.3183 30.604 32.0108 30.8792C31.9279 30.9533 31.8779 31.0574 31.8717 31.1684C31.8656 31.2795 31.9038 31.3884 31.978 31.4713C32.0522 31.5542 32.1562 31.6042 32.2673 31.6103C32.3783 31.6165 32.4873 31.5783 32.5702 31.5041Z" fill="white"/>
<path d="M35.0855 29.9414C34.5474 29.46 33.8506 29.1938 33.1285 29.1938C32.4065 29.1938 31.7097 29.46 31.1715 29.9414C31.13 29.978 31.0961 30.0224 31.0718 30.0722C31.0475 30.1219 31.0333 30.176 31.03 30.2312C31.0267 30.2865 31.0344 30.3418 31.0527 30.3941C31.0709 30.4464 31.0992 30.4945 31.1362 30.5358C31.1731 30.577 31.2178 30.6106 31.2677 30.6344C31.3177 30.6583 31.3719 30.6721 31.4271 30.6749C31.4824 30.6778 31.5377 30.6696 31.5898 30.651C31.642 30.6323 31.6899 30.6036 31.7308 30.5663C32.1152 30.2225 32.6128 30.0325 33.1285 30.0325C33.6442 30.0325 34.1419 30.2225 34.5263 30.5663C34.6093 30.6394 34.7178 30.6767 34.8283 30.6702C34.9387 30.6636 35.042 30.6137 35.1158 30.5312C35.1896 30.4488 35.2278 30.3406 35.2221 30.2301C35.2165 30.1196 35.1674 30.0158 35.0855 29.9414Z" fill="white"/>
<path d="M17.1928 17.4524C17.4244 17.4524 17.6121 17.2647 17.6121 17.0331C17.6121 16.8015 17.4244 16.6138 17.1928 16.6138C16.9612 16.6138 16.7734 16.8015 16.7734 17.0331C16.7734 17.2647 16.9612 17.4524 17.1928 17.4524Z" fill="white"/>
<path d="M17.7526 16.4079C17.7936 16.4446 17.8415 16.4729 17.8934 16.4911C17.9454 16.5094 18.0004 16.5172 18.0554 16.5141C18.1104 16.5111 18.1643 16.4973 18.2139 16.4734C18.2635 16.4496 18.308 16.4162 18.3447 16.3751C18.3815 16.3341 18.4097 16.2862 18.428 16.2343C18.4462 16.1823 18.454 16.1272 18.451 16.0723C18.4479 16.0173 18.4341 15.9634 18.4102 15.9138C18.3864 15.8642 18.353 15.8197 18.312 15.783C18.0044 15.5078 17.6062 15.3557 17.1936 15.3557C16.7809 15.3557 16.3828 15.5078 16.0752 15.783C16.0342 15.8197 16.0008 15.8642 15.9769 15.9138C15.9531 15.9634 15.9392 16.0173 15.9362 16.0723C15.9331 16.1272 15.941 16.1823 15.9592 16.2343C15.9774 16.2862 16.0057 16.3341 16.0424 16.3751C16.0792 16.4162 16.1236 16.4496 16.1733 16.4734C16.2229 16.4973 16.2768 16.5111 16.3317 16.5141C16.3867 16.5172 16.4418 16.5094 16.4937 16.4911C16.5457 16.4729 16.5936 16.4446 16.6346 16.4079C16.7884 16.2704 16.9874 16.1944 17.1936 16.1944C17.3998 16.1944 17.5988 16.2704 17.7526 16.4079Z" fill="white"/>
<path d="M18.5895 15.4701C18.6305 15.5074 18.6784 15.5362 18.7305 15.5548C18.7826 15.5734 18.8379 15.5816 18.8932 15.5787C18.9485 15.5759 19.0027 15.5621 19.0526 15.5383C19.1026 15.5144 19.1473 15.4809 19.1842 15.4396C19.2211 15.3984 19.2495 15.3502 19.2677 15.2979C19.2859 15.2457 19.2936 15.1903 19.2903 15.135C19.287 15.0798 19.2728 15.0257 19.2485 14.976C19.2243 14.9262 19.1904 14.8818 19.1488 14.8452C18.6106 14.3638 17.9139 14.0977 17.1918 14.0977C16.4697 14.0977 15.773 14.3638 15.2348 14.8452C15.153 14.9197 15.1039 15.0234 15.0982 15.1339C15.0925 15.2444 15.1308 15.3526 15.2045 15.435C15.2783 15.5175 15.3817 15.5674 15.4921 15.574C15.6025 15.5806 15.7111 15.5432 15.7941 15.4701C16.1785 15.1264 16.6761 14.9363 17.1918 14.9363C17.7075 14.9363 18.2051 15.1264 18.5895 15.4701Z" fill="white"/>
</svg>
