<svg width="49" height="49" viewBox="0 0 49 49" fill="none" xmlns="http://www.w3.org/2000/svg">
<rect opacity="0.5" width="49" height="49" rx="2" fill="#2273B8"/>
<path d="M8.59813 22.5476C8.26781 22.5476 8 22.8154 8 23.1457V26.8542C8 27.1845 8.26781 27.4523 8.59813 27.4523C8.92845 27.4523 9.19626 27.1845 9.19626 26.8542V23.1457C9.19626 22.8154 8.92845 22.5476 8.59813 22.5476Z" fill="white"/>
<path d="M10.9673 19.5271C10.637 19.5271 10.3691 19.7949 10.3691 20.1252V29.8748C10.3691 30.2051 10.637 30.4729 10.9673 30.4729C11.2976 30.4729 11.5654 30.2051 11.5654 29.8748V20.1252C11.5654 19.7949 11.2976 19.5271 10.9673 19.5271Z" fill="white"/>
<path d="M13.3354 20.5737C13.0051 20.5737 12.7373 20.8415 12.7373 21.1719V28.828C12.7373 29.1583 13.0051 29.4261 13.3354 29.4261C13.6658 29.4261 13.9336 29.1583 13.9336 28.828V21.1719C13.9336 20.8415 13.6658 20.5737 13.3354 20.5737Z" fill="white"/>
<path d="M15.7036 22.5476C15.3733 22.5476 15.1055 22.8154 15.1055 23.1457V26.8542C15.1055 27.1845 15.3733 27.4523 15.7036 27.4523C16.0339 27.4523 16.3017 27.1845 16.3017 26.8542V23.1457C16.3017 22.8154 16.0339 22.5476 15.7036 22.5476Z" fill="white"/>
<path d="M18.0786 17.3379C17.7483 17.3379 17.4805 17.6057 17.4805 17.936V32.0639C17.4805 32.3942 17.7483 32.662 18.0786 32.662C18.4089 32.662 18.6767 32.3942 18.6767 32.0639V17.936C18.6767 17.6057 18.4089 17.3379 18.0786 17.3379Z" fill="white"/>
<path d="M20.4468 20.2568C20.1164 20.2568 19.8486 20.5246 19.8486 20.855V29.1451C19.8486 29.4754 20.1164 29.7432 20.4468 29.7432C20.7771 29.7432 21.0449 29.4754 21.0449 29.1451V20.855C21.0449 20.5246 20.7771 20.2568 20.4468 20.2568Z" fill="white"/>
<path d="M22.8042 21.2559C22.4739 21.2559 22.2061 21.5237 22.2061 21.854V28.1463C22.2061 28.4766 22.4739 28.7444 22.8042 28.7444C23.1345 28.7444 23.4023 28.4766 23.4023 28.1463V21.854C23.4023 21.5237 23.1345 21.2559 22.8042 21.2559Z" fill="white"/>
<path d="M25.1958 22.5476C24.8655 22.5476 24.5977 22.8154 24.5977 23.1457V26.8542C24.5977 27.1845 24.8655 27.4523 25.1958 27.4523C25.5261 27.4523 25.7939 27.1845 25.7939 26.8542V23.1457C25.7939 22.8154 25.5261 22.5476 25.1958 22.5476Z" fill="white"/>
<path d="M27.5532 21.2559C27.2229 21.2559 26.9551 21.5237 26.9551 21.854V28.1463C26.9551 28.4766 27.2229 28.7444 27.5532 28.7444C27.8835 28.7444 28.1514 28.4766 28.1514 28.1463V21.854C28.1514 21.5237 27.8835 21.2559 27.5532 21.2559Z" fill="white"/>
<path d="M29.9214 20.2568C29.5911 20.2568 29.3232 20.5246 29.3232 20.855V29.1451C29.3232 29.4754 29.5911 29.7432 29.9214 29.7432C30.2517 29.7432 30.5195 29.4754 30.5195 29.1451V20.855C30.5195 20.5246 30.2517 20.2568 29.9214 20.2568Z" fill="white"/>
<path d="M32.2964 17.3379C31.9661 17.3379 31.6982 17.6057 31.6982 17.936V32.0639C31.6982 32.3942 31.9661 32.662 32.2964 32.662C32.6267 32.662 32.8945 32.3942 32.8945 32.0639V17.936C32.8945 17.6057 32.6267 17.3379 32.2964 17.3379Z" fill="white"/>
<path d="M34.6645 20.5737C34.3342 20.5737 34.0664 20.8415 34.0664 21.1719V28.828C34.0664 29.1583 34.3342 29.4261 34.6645 29.4261C34.9949 29.4261 35.2627 29.1583 35.2627 28.828V21.1719C35.2627 20.8415 34.9949 20.5737 34.6645 20.5737Z" fill="white"/>
<path d="M37.0327 22.5476C36.7024 22.5476 36.4346 22.8154 36.4346 23.1457V26.8542C36.4346 27.1845 36.7024 27.4523 37.0327 27.4523C37.363 27.4523 37.6308 27.1845 37.6308 26.8542V23.1457C37.6308 22.8154 37.363 22.5476 37.0327 22.5476Z" fill="white"/>
<path d="M39.4018 22.5476C39.0715 22.5476 38.8037 22.8154 38.8037 23.1457V26.8542C38.8037 27.1845 39.0715 27.4523 39.4018 27.4523C39.7322 27.4523 40 27.1845 40 26.8542V23.1457C40 22.8154 39.7322 22.5476 39.4018 22.5476Z" fill="white"/>
</svg>
