<svg width="49" height="49" viewBox="0 0 49 49" fill="none" xmlns="http://www.w3.org/2000/svg">
<rect opacity="0.5" width="49" height="49" rx="2" fill="#2273B8"/>
<path d="M32.6065 21.8081C31.0308 20.1515 28.9298 18.9798 26.5863 18.495V17.0404C26.5863 16.7172 26.4651 16.3939 26.2227 16.1919C25.9803 15.9899 25.6975 15.8283 25.3742 15.8283H24.7278L24.6874 9.60606C24.6874 9.24242 24.4045 9 24.0813 9C23.7177 9 23.4752 9.28283 23.4752 9.60606L23.5156 15.8283H22.8692C22.5459 15.8283 22.2227 15.9495 22.0207 16.1919C21.8187 16.4343 21.657 16.7172 21.657 17.0404V18.4545C19.1924 18.9798 17.051 20.1515 15.3944 21.8081C13.1722 24.0303 11.8389 27.0606 11.8389 30.4545C11.8389 30.8182 12.1217 31.0606 12.4449 31.0606H18.9096C19.0712 32.2323 19.556 33.2828 20.3641 34.0909C21.2934 35.0202 22.5863 35.5859 24.0005 35.5859C25.4146 35.5859 26.7076 35.0202 27.6368 34.0909C28.4449 33.2828 28.9298 32.2323 29.0914 31.0606H35.556C35.9197 31.0606 36.1621 30.7778 36.1621 30.4545C36.1621 27.101 34.7884 24.0303 32.6065 21.8081ZM22.8288 17.0808H25.3338V18.2929C25.2934 18.2929 25.2934 18.2929 25.253 18.2929C25.1722 18.2929 25.1318 18.2929 25.051 18.2929C24.7278 18.2525 24.3641 18.2525 24.0409 18.2525C23.7177 18.2121 23.3944 18.2525 23.0712 18.2525C22.9904 18.2525 22.9096 18.2525 22.8288 18.2929V17.0808ZM26.7884 33.202C26.0611 33.9293 25.0914 34.3333 24.0409 34.3333C22.95 34.3333 21.9803 33.8889 21.2934 33.202C20.7278 32.6364 20.3237 31.9091 20.2025 31.0606H24.0409H27.9197C27.7581 31.8687 27.3944 32.6364 26.7884 33.202ZM28.5661 29.8081H24.0409H19.5156H13.0914C13.253 27.0202 14.4247 24.5152 16.2833 22.697C17.9803 21 20.2025 19.8687 22.7076 19.5859C22.7884 19.5859 22.9096 19.5455 22.9904 19.5455C23.3136 19.5051 23.6773 19.5051 24.0005 19.5051C24.3641 19.5051 24.6874 19.5051 25.051 19.5455C25.1318 19.5455 25.253 19.5859 25.3338 19.5859C27.8389 19.8687 30.0611 21 31.7581 22.697C33.6166 24.5556 34.7884 27.0202 34.95 29.8081H28.5661Z" fill="white"/>
<path d="M24.0406 36.4343C23.677 36.4343 23.4346 36.7172 23.4346 37.0404V40.394C23.4346 40.7576 23.7174 41 24.0406 41C24.4043 41 24.6467 40.7172 24.6467 40.394V37.0404C24.6467 36.6768 24.4043 36.4343 24.0406 36.4343Z" fill="white"/>
<path d="M29.5761 38.7373L27.8791 35.8282C27.7175 35.5454 27.3135 35.4242 27.0306 35.5858C26.7478 35.7474 26.6266 36.1515 26.7882 36.4343L28.4852 39.3434C28.6468 39.6262 29.0508 39.7474 29.3337 39.5858C29.6165 39.4242 29.7377 39.0202 29.5761 38.7373Z" fill="white"/>
<path d="M32.9693 34.8989L30.0602 33.2019C29.7773 33.0403 29.3733 33.1211 29.2117 33.4443C29.0501 33.7272 29.1309 34.1312 29.4541 34.2928L32.3632 35.9898C32.646 36.1514 33.0501 36.0706 33.2117 35.7473C33.3733 35.4645 33.2925 35.0605 32.9693 34.8989Z" fill="white"/>
<path d="M18.8693 33.4444C18.7076 33.1616 18.3036 33.0404 18.0208 33.202L15.1117 34.899C14.8289 35.0606 14.7076 35.4646 14.8693 35.7475C15.0309 36.0303 15.4349 36.1515 15.7177 35.9899L18.6268 34.2929C18.9097 34.0909 19.0309 33.7273 18.8693 33.4444Z" fill="white"/>
<path d="M21.0501 35.5858C20.7673 35.4242 20.3632 35.5454 20.2016 35.8282L18.5046 38.7373C18.343 39.0202 18.4238 39.4242 18.7471 39.5858C19.0299 39.7474 19.4339 39.6666 19.5955 39.3434L21.2925 36.4343C21.4541 36.1515 21.3733 35.7474 21.0501 35.5858Z" fill="white"/>
</svg>
