<svg width="49" height="49" viewBox="0 0 49 49" fill="none" xmlns="http://www.w3.org/2000/svg">
<rect opacity="0.5" width="49" height="49" rx="2" fill="#2273B8"/>
<path d="M22.248 25.9476V27.1082C22.248 28.565 23.4292 29.7462 24.8861 29.7462C26.343 29.7462 27.5241 28.565 27.5241 27.1082V25.9476C27.5241 24.4908 26.343 23.3096 24.8861 23.3096C23.4292 23.3096 22.248 24.4908 22.248 25.9476ZM26.8902 25.9476V27.1082C26.8902 28.2151 25.993 29.1123 24.8861 29.1123C23.7792 29.1123 22.882 28.2151 22.882 27.1082V25.9476C22.882 24.8407 23.7792 23.9435 24.8861 23.9435C25.993 23.9435 26.8902 24.8407 26.8902 25.9476Z" fill="white"/>
<path d="M29.3282 27.1418V28.1575C29.3242 28.9992 29.771 29.7786 30.4992 30.2008C31.2274 30.6228 32.1259 30.6228 32.8543 30.2008C33.5826 29.7786 34.0293 28.9992 34.0254 28.1575V27.1418C34.0293 26.3001 33.5826 25.5205 32.8543 25.0985C32.1259 24.6765 31.2274 24.6765 30.4992 25.0985C29.771 25.5205 29.3242 26.3001 29.3282 27.1418ZM33.3915 27.1418V28.1575C33.3948 28.7724 33.0687 29.342 32.5368 29.6505C32.005 29.9588 31.3486 29.9588 30.8166 29.6505C30.2846 29.342 29.9586 28.7724 29.9621 28.1575V27.1418C29.9586 26.5269 30.2846 25.9573 30.8166 25.6488C31.3486 25.3403 32.005 25.3403 32.5368 25.6488C33.0687 25.9573 33.3948 26.5269 33.3915 27.1418Z" fill="white"/>
<path d="M33.3184 30.638C33.1537 30.63 33.072 30.7296 32.9928 30.8264C32.6702 31.2206 32.1839 31.4438 31.6746 31.4315C31.1653 31.4189 30.6903 31.1721 30.3875 30.7627C30.3256 30.6801 30.2278 30.6322 30.1246 30.6341C29.663 30.6444 29.2128 30.7783 28.8207 31.0223C28.3056 30.4102 27.5619 30.0361 26.7635 29.9876C26.5964 29.9775 26.514 30.0788 26.4263 30.1859C26.0489 30.6471 25.4798 30.9084 24.884 30.8937C24.2885 30.8793 23.7328 30.5906 23.3785 30.1114C23.3174 30.0278 23.2189 29.98 23.1156 29.9831C22.3525 30.0006 21.6267 30.3171 21.0947 30.8644C21.0438 30.9166 20.9957 30.9709 20.9492 31.026C20.5817 30.7971 20.1628 30.6636 19.7307 30.638C19.5658 30.63 19.4845 30.7296 19.4053 30.8264C19.0828 31.2206 18.5964 31.4438 18.0871 31.4315C17.5778 31.4189 17.103 31.1721 16.8 30.7627C16.7381 30.6801 16.6403 30.6322 16.5371 30.6341C15.1257 30.67 14.0002 31.8244 14 33.2363V35.5221C14 35.6972 14.1418 35.839 14.317 35.839H20.261V36.6828C20.261 36.8578 20.403 36.9998 20.578 36.9998H29.1958C29.371 36.9998 29.5128 36.8578 29.5128 36.6828V35.839H35.4478C35.6228 35.839 35.7648 35.6972 35.7648 35.5221V33.2363C35.7631 31.8603 34.6919 30.7224 33.3184 30.638ZM20.261 32.9106V35.2051H14.6339V33.2363C14.6401 32.2296 15.3999 31.3873 16.4007 31.2777C16.8335 31.7767 17.4612 32.0641 18.1218 32.0658C18.7825 32.0675 19.4115 31.7831 19.8469 31.286C20.1114 31.3227 20.3657 31.4135 20.5939 31.5526C20.3743 31.9715 20.2602 32.4377 20.261 32.9106ZM28.8789 36.3656H20.895V32.9106C20.8941 32.4601 21.0266 32.0196 21.2759 31.6442L21.2771 31.6426C21.3568 31.5227 21.4476 31.4104 21.5481 31.3074C21.9278 30.9168 22.4348 30.675 22.9773 30.6256C23.4637 31.1966 24.1754 31.5266 24.9253 31.5282C25.6754 31.5299 26.3886 31.2034 26.8774 30.6345C28.0215 30.7831 28.8778 31.7571 28.8789 32.9106V36.3656ZM35.1308 35.2051H29.5128V32.9106C29.5132 32.436 29.3974 31.9684 29.1758 31.5487C29.423 31.3989 29.7004 31.3064 29.9878 31.2775C30.4071 31.7645 31.0134 32.0507 31.6558 32.065C31.6756 32.0656 31.6954 32.0658 31.7154 32.0658C32.3743 32.0672 33.0015 31.7829 33.4342 31.286C34.4065 31.423 35.1298 32.2544 35.1308 33.2363V35.2051Z" fill="white"/>
<path d="M15.7403 27.1418V28.1575C15.7363 28.9992 16.1831 29.7786 16.9113 30.2008C17.6396 30.6228 18.538 30.6228 19.2665 30.2008C19.9947 29.7786 20.4415 28.9992 20.4375 28.1575V27.1418C20.4415 26.3001 19.9947 25.5205 19.2665 25.0985C18.538 24.6765 17.6396 24.6765 16.9113 25.0985C16.1831 25.5205 15.7363 26.3001 15.7403 27.1418ZM18.089 25.4272C19.0356 25.4282 19.8026 26.1953 19.8036 27.1418V28.1575C19.8071 28.7724 19.4811 29.3422 18.9491 29.6505C18.4171 29.959 17.7609 29.959 17.2289 29.6505C16.6969 29.3422 16.3709 28.7724 16.3744 28.1575V27.1418C16.3756 26.1953 17.1427 25.4282 18.089 25.4272Z" fill="white"/>
<path d="M32.8057 11H16.9576C16.8495 11 16.749 11.0551 16.6906 11.1461C16.6324 11.2369 16.6245 11.3514 16.6697 11.4494L17.158 12.5105C17.2098 12.623 17.3222 12.695 17.4458 12.695H18.3728V13.5068C18.3728 13.6818 18.5147 13.8238 18.6897 13.8238H18.815V15.3716C18.815 18.722 21.5313 21.4381 24.8816 21.4381C28.232 21.4381 30.9481 18.722 30.9481 15.3716V13.8238H31.0734C31.2486 13.8238 31.3903 13.6818 31.3903 13.5068V12.695H32.3173C32.4411 12.695 32.5535 12.623 32.6051 12.5105L33.0936 11.4494C33.1388 11.3514 33.1309 11.2369 33.0725 11.1461C33.0143 11.0551 32.9136 11 32.8057 11V11ZM30.3142 15.3719C30.3142 18.3721 27.8819 20.8044 24.8816 20.8044C21.8812 20.8044 19.4489 18.3721 19.4489 15.3719V13.824H30.3142V15.3719ZM30.7564 13.1901H19.0067V12.695H30.7564V13.1901ZM32.114 12.0613H31.1367C31.0948 12.0528 31.0519 12.0528 31.0102 12.0613H18.7531C18.7112 12.0528 18.6683 12.0528 18.6266 12.0613H17.6489L17.4522 11.6339H32.3109L32.114 12.0613Z" fill="white"/>
<path d="M27.1574 18.8162C26.9498 18.9822 26.7249 19.125 26.4866 19.242C26.3838 19.2913 26.3155 19.392 26.3074 19.5055C26.2994 19.6192 26.3528 19.7283 26.4478 19.7915C26.5425 19.8546 26.6638 19.8623 26.7658 19.8111C27.0456 19.6737 27.3097 19.5061 27.5534 19.3115C27.69 19.2021 27.7123 19.0026 27.6029 18.866C27.4936 18.7292 27.2942 18.7069 27.1574 18.8162Z" fill="white"/>
<path d="M28.1562 18.2233C28.3079 18.311 28.5018 18.2592 28.5893 18.1077C28.9657 17.4575 29.1634 16.7192 29.1622 15.9678C29.1622 15.7929 29.0202 15.6509 28.8452 15.6509C28.67 15.6509 28.5283 15.7929 28.5283 15.9678C28.5293 16.6077 28.3611 17.2365 28.0406 17.7904C27.9531 17.9418 28.0047 18.1356 28.1562 18.2233Z" fill="white"/>
<path d="M24.8817 18.5264C25.6357 18.5264 26.3418 18.156 26.7704 17.5355C26.7748 17.5355 26.7791 17.5359 26.7834 17.5359C27.2172 17.5359 27.5909 17.2301 27.6768 16.805C27.7626 16.3797 27.5366 15.9529 27.1367 15.7847C26.9029 14.5961 25.7865 13.7932 24.5853 13.9496C23.3841 14.106 22.5106 15.1682 22.5888 16.377C22.6671 17.5856 23.6704 18.5262 24.8817 18.5264ZM26.7834 16.3473C26.9366 16.3473 27.061 16.4715 27.061 16.6246C27.061 16.7779 26.9368 16.9022 26.7834 16.9022C26.6301 16.9022 26.5059 16.7779 26.5061 16.6246C26.5063 16.4715 26.6303 16.3475 26.7834 16.3473ZM24.8817 14.5644C25.6235 14.5621 26.2766 15.0528 26.4807 15.7662C26.1801 15.8714 25.9566 16.1263 25.8914 16.4383C25.8264 16.7501 25.9293 17.0732 26.1629 17.2899C25.6702 17.8848 24.8328 18.0625 24.1409 17.7187C23.4489 17.3749 23.0847 16.6001 23.2614 15.8479C23.438 15.0959 24.1091 14.5642 24.8817 14.5644Z" fill="white"/>
</svg>
